<svg xmlns="http://www.w3.org/2000/svg" xmlns:xlink="http://www.w3.org/1999/xlink" xmlns:s="https://github.com/nturley/netlistsvg" width="525" height="1476.5"><rect width="525" height="1476.5" fill="white" opacity="1"/><style>svg {
  stroke:#000;
}
text {
  fill:#000;
  stroke:none;
  font-size:12px;
  font-weight: bold;
  font-family: "Courier New", monospace;
}
line {
    stroke-linecap: round;
}
.nodelabel {
  text-anchor: middle;
}
.inputPortLabel {
  text-anchor: end;
}
.splitjoinBody {
  fill:#000;
}</style><g s:type="generic" transform="translate(447,190)" s:width="30" s:height="40" id="cell_label[0].fx"><text x="15" y="-4" class="nodelabel cell_label[0].fx" s:attribute="ref">fulladder_1</text><rect width="30" height="120" s:generic="body" fill="#ffae46" rx="0" class="cell_label[0].fx"/><g transform="translate(0,10)" s:x="0" s:y="10" s:pid="in0" id="port_label[0].fx~$1"><text x="-3" y="-4" class="inputPortLabel cell_label[0].fx">$1</text></g><g transform="translate(0,30)" s:x="0" s:y="10" s:pid="in0" id="port_label[0].fx~$2"><text x="-3" y="-4" class="inputPortLabel cell_label[0].fx">$2</text></g><g transform="translate(0,50)" s:x="0" s:y="10" s:pid="in0" id="port_label[0].fx~$3"><text x="-3" y="-4" class="inputPortLabel cell_label[0].fx">$3</text></g><g transform="translate(0,70)" s:x="0" s:y="10" s:pid="in0" id="port_label[0].fx~$4"><text x="-3" y="-4" class="inputPortLabel cell_label[0].fx">$4</text></g><g transform="translate(0,90)" s:x="0" s:y="10" s:pid="in0" id="port_label[0].fx~$5"><text x="-3" y="-4" class="inputPortLabel cell_label[0].fx">$5</text></g><g transform="translate(0,110)" s:x="0" s:y="10" s:pid="in0" id="port_label[0].fx~$6"><text x="-3" y="-4" class="inputPortLabel cell_label[0].fx">$6</text></g></g><g s:type="generic" transform="translate(447,22)" s:width="30" s:height="40" id="cell_label[1].fx"><text x="15" y="-4" class="nodelabel cell_label[1].fx" s:attribute="ref">fulladder_1</text><rect width="30" height="120" s:generic="body" fill="#ffae46" rx="0" class="cell_label[1].fx"/><g transform="translate(0,10)" s:x="0" s:y="10" s:pid="in0" id="port_label[1].fx~$1"><text x="-3" y="-4" class="inputPortLabel cell_label[1].fx">$1</text></g><g transform="translate(0,30)" s:x="0" s:y="10" s:pid="in0" id="port_label[1].fx~$2"><text x="-3" y="-4" class="inputPortLabel cell_label[1].fx">$2</text></g><g transform="translate(0,50)" s:x="0" s:y="10" s:pid="in0" id="port_label[1].fx~$3"><text x="-3" y="-4" class="inputPortLabel cell_label[1].fx">$3</text></g><g transform="translate(0,70)" s:x="0" s:y="10" s:pid="in0" id="port_label[1].fx~$4"><text x="-3" y="-4" class="inputPortLabel cell_label[1].fx">$4</text></g><g transform="translate(0,90)" s:x="0" s:y="10" s:pid="in0" id="port_label[1].fx~$5"><text x="-3" y="-4" class="inputPortLabel cell_label[1].fx">$5</text></g><g transform="translate(0,110)" s:x="0" s:y="10" s:pid="in0" id="port_label[1].fx~$6"><text x="-3" y="-4" class="inputPortLabel cell_label[1].fx">$6</text></g></g><g s:type="generic" transform="translate(447,358)" s:width="30" s:height="40" id="cell_label[2].fx"><text x="15" y="-4" class="nodelabel cell_label[2].fx" s:attribute="ref">fulladder_1</text><rect width="30" height="120" s:generic="body" fill="#ffae46" rx="0" class="cell_label[2].fx"/><g transform="translate(0,10)" s:x="0" s:y="10" s:pid="in0" id="port_label[2].fx~$1"><text x="-3" y="-4" class="inputPortLabel cell_label[2].fx">$1</text></g><g transform="translate(0,30)" s:x="0" s:y="10" s:pid="in0" id="port_label[2].fx~$2"><text x="-3" y="-4" class="inputPortLabel cell_label[2].fx">$2</text></g><g transform="translate(0,50)" s:x="0" s:y="10" s:pid="in0" id="port_label[2].fx~$3"><text x="-3" y="-4" class="inputPortLabel cell_label[2].fx">$3</text></g><g transform="translate(0,70)" s:x="0" s:y="10" s:pid="in0" id="port_label[2].fx~$4"><text x="-3" y="-4" class="inputPortLabel cell_label[2].fx">$4</text></g><g transform="translate(0,90)" s:x="0" s:y="10" s:pid="in0" id="port_label[2].fx~$5"><text x="-3" y="-4" class="inputPortLabel cell_label[2].fx">$5</text></g><g transform="translate(0,110)" s:x="0" s:y="10" s:pid="in0" id="port_label[2].fx~$6"><text x="-3" y="-4" class="inputPortLabel cell_label[2].fx">$6</text></g></g><g s:type="generic" transform="translate(447,707.5)" s:width="30" s:height="40" id="cell_label[3].fx"><text x="15" y="-4" class="nodelabel cell_label[3].fx" s:attribute="ref">fulladder_1</text><rect width="30" height="120" s:generic="body" fill="#ffae46" rx="0" class="cell_label[3].fx"/><g transform="translate(0,10)" s:x="0" s:y="10" s:pid="in0" id="port_label[3].fx~$1"><text x="-3" y="-4" class="inputPortLabel cell_label[3].fx">$1</text></g><g transform="translate(0,30)" s:x="0" s:y="10" s:pid="in0" id="port_label[3].fx~$2"><text x="-3" y="-4" class="inputPortLabel cell_label[3].fx">$2</text></g><g transform="translate(0,50)" s:x="0" s:y="10" s:pid="in0" id="port_label[3].fx~$3"><text x="-3" y="-4" class="inputPortLabel cell_label[3].fx">$3</text></g><g transform="translate(0,70)" s:x="0" s:y="10" s:pid="in0" id="port_label[3].fx~$4"><text x="-3" y="-4" class="inputPortLabel cell_label[3].fx">$4</text></g><g transform="translate(0,90)" s:x="0" s:y="10" s:pid="in0" id="port_label[3].fx~$5"><text x="-3" y="-4" class="inputPortLabel cell_label[3].fx">$5</text></g><g transform="translate(0,110)" s:x="0" s:y="10" s:pid="in0" id="port_label[3].fx~$6"><text x="-3" y="-4" class="inputPortLabel cell_label[3].fx">$6</text></g></g><g s:type="generic" transform="translate(447,539.5)" s:width="30" s:height="40" id="cell_label[4].fx"><text x="15" y="-4" class="nodelabel cell_label[4].fx" s:attribute="ref">fulladder_1</text><rect width="30" height="120" s:generic="body" fill="#ffae46" rx="0" class="cell_label[4].fx"/><g transform="translate(0,10)" s:x="0" s:y="10" s:pid="in0" id="port_label[4].fx~$1"><text x="-3" y="-4" class="inputPortLabel cell_label[4].fx">$1</text></g><g transform="translate(0,30)" s:x="0" s:y="10" s:pid="in0" id="port_label[4].fx~$2"><text x="-3" y="-4" class="inputPortLabel cell_label[4].fx">$2</text></g><g transform="translate(0,50)" s:x="0" s:y="10" s:pid="in0" id="port_label[4].fx~$3"><text x="-3" y="-4" class="inputPortLabel cell_label[4].fx">$3</text></g><g transform="translate(0,70)" s:x="0" s:y="10" s:pid="in0" id="port_label[4].fx~$4"><text x="-3" y="-4" class="inputPortLabel cell_label[4].fx">$4</text></g><g transform="translate(0,90)" s:x="0" s:y="10" s:pid="in0" id="port_label[4].fx~$5"><text x="-3" y="-4" class="inputPortLabel cell_label[4].fx">$5</text></g><g transform="translate(0,110)" s:x="0" s:y="10" s:pid="in0" id="port_label[4].fx~$6"><text x="-3" y="-4" class="inputPortLabel cell_label[4].fx">$6</text></g></g><g s:type="generic" transform="translate(447,875.5)" s:width="30" s:height="40" id="cell_label[5].fx"><text x="15" y="-4" class="nodelabel cell_label[5].fx" s:attribute="ref">fulladder_1</text><rect width="30" height="120" s:generic="body" fill="#ffae46" rx="0" class="cell_label[5].fx"/><g transform="translate(0,10)" s:x="0" s:y="10" s:pid="in0" id="port_label[5].fx~$1"><text x="-3" y="-4" class="inputPortLabel cell_label[5].fx">$1</text></g><g transform="translate(0,30)" s:x="0" s:y="10" s:pid="in0" id="port_label[5].fx~$2"><text x="-3" y="-4" class="inputPortLabel cell_label[5].fx">$2</text></g><g transform="translate(0,50)" s:x="0" s:y="10" s:pid="in0" id="port_label[5].fx~$3"><text x="-3" y="-4" class="inputPortLabel cell_label[5].fx">$3</text></g><g transform="translate(0,70)" s:x="0" s:y="10" s:pid="in0" id="port_label[5].fx~$4"><text x="-3" y="-4" class="inputPortLabel cell_label[5].fx">$4</text></g><g transform="translate(0,90)" s:x="0" s:y="10" s:pid="in0" id="port_label[5].fx~$5"><text x="-3" y="-4" class="inputPortLabel cell_label[5].fx">$5</text></g><g transform="translate(0,110)" s:x="0" s:y="10" s:pid="in0" id="port_label[5].fx~$6"><text x="-3" y="-4" class="inputPortLabel cell_label[5].fx">$6</text></g></g><g s:type="generic" transform="translate(447,1043.5)" s:width="30" s:height="40" id="cell_label[6].fx"><text x="15" y="-4" class="nodelabel cell_label[6].fx" s:attribute="ref">fulladder_1</text><rect width="30" height="120" s:generic="body" fill="#ffae46" rx="0" class="cell_label[6].fx"/><g transform="translate(0,10)" s:x="0" s:y="10" s:pid="in0" id="port_label[6].fx~$1"><text x="-3" y="-4" class="inputPortLabel cell_label[6].fx">$1</text></g><g transform="translate(0,30)" s:x="0" s:y="10" s:pid="in0" id="port_label[6].fx~$2"><text x="-3" y="-4" class="inputPortLabel cell_label[6].fx">$2</text></g><g transform="translate(0,50)" s:x="0" s:y="10" s:pid="in0" id="port_label[6].fx~$3"><text x="-3" y="-4" class="inputPortLabel cell_label[6].fx">$3</text></g><g transform="translate(0,70)" s:x="0" s:y="10" s:pid="in0" id="port_label[6].fx~$4"><text x="-3" y="-4" class="inputPortLabel cell_label[6].fx">$4</text></g><g transform="translate(0,90)" s:x="0" s:y="10" s:pid="in0" id="port_label[6].fx~$5"><text x="-3" y="-4" class="inputPortLabel cell_label[6].fx">$5</text></g><g transform="translate(0,110)" s:x="0" s:y="10" s:pid="in0" id="port_label[6].fx~$6"><text x="-3" y="-4" class="inputPortLabel cell_label[6].fx">$6</text></g></g><g s:type="generic" transform="translate(447,1211.5)" s:width="30" s:height="40" id="cell_label[7].fx"><text x="15" y="-4" class="nodelabel cell_label[7].fx" s:attribute="ref">fulladder_1</text><rect width="30" height="120" s:generic="body" fill="#ffae46" rx="0" class="cell_label[7].fx"/><g transform="translate(0,10)" s:x="0" s:y="10" s:pid="in0" id="port_label[7].fx~$1"><text x="-3" y="-4" class="inputPortLabel cell_label[7].fx">$1</text></g><g transform="translate(0,30)" s:x="0" s:y="10" s:pid="in0" id="port_label[7].fx~$2"><text x="-3" y="-4" class="inputPortLabel cell_label[7].fx">$2</text></g><g transform="translate(0,50)" s:x="0" s:y="10" s:pid="in0" id="port_label[7].fx~$3"><text x="-3" y="-4" class="inputPortLabel cell_label[7].fx">$3</text></g><g transform="translate(0,70)" s:x="0" s:y="10" s:pid="in0" id="port_label[7].fx~$4"><text x="-3" y="-4" class="inputPortLabel cell_label[7].fx">$4</text></g><g transform="translate(0,90)" s:x="0" s:y="10" s:pid="in0" id="port_label[7].fx~$5"><text x="-3" y="-4" class="inputPortLabel cell_label[7].fx">$5</text></g><g transform="translate(0,110)" s:x="0" s:y="10" s:pid="in0" id="port_label[7].fx~$6"><text x="-3" y="-4" class="inputPortLabel cell_label[7].fx">$6</text></g></g><g s:type="inputExt" transform="translate(12,530)" s:width="30" s:height="20" id="cell_X"><text x="15" y="-4" class="nodelabel cell_X" s:attribute="ref">X</text><s:alias val="$_inputExt_"/><path d="M0,0 L0,20 L15,20 L30,10 L15,0 Z" fill="#8bcaff" class="cell_X"/><g s:x="30" s:y="10" s:pid="Y"/></g><g s:type="inputExt" transform="translate(12,738)" s:width="30" s:height="20" id="cell_Y"><text x="15" y="-4" class="nodelabel cell_Y" s:attribute="ref">Y</text><s:alias val="$_inputExt_"/><path d="M0,0 L0,20 L15,20 L30,10 L15,0 Z" fill="#8bcaff" class="cell_Y"/><g s:x="30" s:y="10" s:pid="Y"/></g><g s:type="inputExt" transform="translate(181,305.5)" s:width="30" s:height="20" id="cell_Carryin"><text x="15" y="-4" class="nodelabel cell_Carryin" s:attribute="ref">Carryin</text><s:alias val="$_inputExt_"/><path d="M0,0 L0,20 L15,20 L30,10 L15,0 Z" fill="#8bcaff" class="cell_Carryin"/><g s:x="30" s:y="10" s:pid="Y"/></g><g s:type="outputExt" transform="translate(447,1379.5)" s:width="30" s:height="20" id="cell_Carryout"><text x="15" y="-4" class="nodelabel cell_Carryout" s:attribute="ref">Carryout</text><s:alias val="$_outputExt_"/><path d="M30,0 L30,20 L15,20 L0,10 L15,0 Z" fill="#169300" class="cell_Carryout"/><g s:x="0" s:y="10" s:pid="A"/></g><g s:type="outputExt" transform="translate(447,1444.5)" s:width="30" s:height="20" id="cell_Sum"><text x="15" y="-4" class="nodelabel cell_Sum" s:attribute="ref">Sum</text><s:alias val="$_outputExt_"/><path d="M30,0 L30,20 L15,20 L0,10 L15,0 Z" fill="#169300" class="cell_Sum"/><g s:x="0" s:y="10" s:pid="A"/></g><g s:type="inputExt" transform="translate(181,971)" s:width="30" s:height="20" id="cell_clk1"><text x="15" y="-4" class="nodelabel cell_clk1" s:attribute="ref">clk1</text><s:alias val="$_inputExt_"/><path d="M0,0 L0,20 L15,20 L30,10 L15,0 Z" fill="#8bcaff" class="cell_clk1"/><g s:x="30" s:y="10" s:pid="Y"/></g><g s:type="join" transform="translate(140,1023)" s:width="5" s:height="40" id="cell_$join$,20,21,22,23,24,25,26,27,"><rect width="5" height="160" class="splitjoinBody" s:generic="body"/><s:alias val="$_join_"/><g s:x="5" s:y="20" s:pid="out"/><g transform="translate(-1,10)" s:x="-1" s:y="10" s:pid="in0"><text x="-3" y="-4" class="inputPortLabel">0</text></g><g transform="translate(-1,30)" s:x="-1" s:y="10" s:pid="in0"><text x="-3" y="-4" class="inputPortLabel">1</text></g><g transform="translate(-1,50)" s:x="-1" s:y="10" s:pid="in0"><text x="-3" y="-4" class="inputPortLabel">2</text></g><g transform="translate(-1,70)" s:x="-1" s:y="10" s:pid="in0"><text x="-3" y="-4" class="inputPortLabel">3</text></g><g transform="translate(-1,90)" s:x="-1" s:y="10" s:pid="in0"><text x="-3" y="-4" class="inputPortLabel">4</text></g><g transform="translate(-1,110)" s:x="-1" s:y="10" s:pid="in0"><text x="-3" y="-4" class="inputPortLabel">5</text></g><g transform="translate(-1,130)" s:x="-1" s:y="10" s:pid="in0"><text x="-3" y="-4" class="inputPortLabel">6</text></g><g transform="translate(-1,150)" s:x="-1" s:y="10" s:pid="in0"><text x="-3" y="-4" class="inputPortLabel">7</text></g></g><g s:type="split" transform="translate(204.55555555555554,459.5)" s:width="5" s:height="40" id="cell_$split$,2,3,4,5,6,7,8,9,"><rect width="5" height="160" class="splitjoinBody" s:generic="body"/><s:alias val="$_split_"/><g s:x="-1" s:y="20" s:pid="in"/><g transform="translate(5,10)" s:x="5" s:y="10" s:pid="out0"><text x="5" y="-4">0</text></g><g transform="translate(5,30)" s:x="5" s:y="10" s:pid="out0"><text x="5" y="-4">1</text></g><g transform="translate(5,50)" s:x="5" s:y="10" s:pid="out0"><text x="5" y="-4">2</text></g><g transform="translate(5,70)" s:x="5" s:y="10" s:pid="out0"><text x="5" y="-4">3</text></g><g transform="translate(5,90)" s:x="5" s:y="10" s:pid="out0"><text x="5" y="-4">4</text></g><g transform="translate(5,110)" s:x="5" s:y="10" s:pid="out0"><text x="5" y="-4">5</text></g><g transform="translate(5,130)" s:x="5" s:y="10" s:pid="out0"><text x="5" y="-4">6</text></g><g transform="translate(5,150)" s:x="5" s:y="10" s:pid="out0"><text x="5" y="-4">7</text></g></g><g s:type="split" transform="translate(204.55555555555554,667.5)" s:width="5" s:height="40" id="cell_$split$,10,11,12,13,14,15,16,17,"><rect width="5" height="160" class="splitjoinBody" s:generic="body"/><s:alias val="$_split_"/><g s:x="-1" s:y="20" s:pid="in"/><g transform="translate(5,10)" s:x="5" s:y="10" s:pid="out0"><text x="5" y="-4">0</text></g><g transform="translate(5,30)" s:x="5" s:y="10" s:pid="out0"><text x="5" y="-4">1</text></g><g transform="translate(5,50)" s:x="5" s:y="10" s:pid="out0"><text x="5" y="-4">2</text></g><g transform="translate(5,70)" s:x="5" s:y="10" s:pid="out0"><text x="5" y="-4">3</text></g><g transform="translate(5,90)" s:x="5" s:y="10" s:pid="out0"><text x="5" y="-4">4</text></g><g transform="translate(5,110)" s:x="5" s:y="10" s:pid="out0"><text x="5" y="-4">5</text></g><g transform="translate(5,130)" s:x="5" s:y="10" s:pid="out0"><text x="5" y="-4">6</text></g><g transform="translate(5,150)" s:x="5" s:y="10" s:pid="out0"><text x="5" y="-4">7</text></g></g><line x1="210.55555555555554" x2="283" y1="470" y2="470" class="net_2 width_1" style="stroke-width: 1"/><line x1="283" x2="283" y1="470" y2="200.5" class="net_2 width_1" style="stroke-width: 1"/><line x1="283" x2="447" y1="200.5" y2="200.5" class="net_2 width_1" style="stroke-width: 1"/><line x1="210.55555555555554" x2="303" y1="678" y2="678" class="net_10 width_1" style="stroke-width: 1"/><line x1="303" x2="303" y1="678" y2="220.5" class="net_10 width_1" style="stroke-width: 1"/><line x1="303" x2="446" y1="220.5" y2="220.5" class="net_10 width_1" style="stroke-width: 1"/><line x1="211" x2="273" y1="315.5" y2="315.5" class="net_18 width_1" style="stroke-width: 1"/><line x1="273" x2="273" y1="315.5" y2="240.5" class="net_18 width_1" style="stroke-width: 1"/><line x1="273" x2="446" y1="240.5" y2="240.5" class="net_18 width_1" style="stroke-width: 1"/><line x1="211" x2="446" y1="260.5" y2="260.5" class="net_29 width_1" style="stroke-width: 1"/><line x1="211" x2="253" y1="260.5" y2="260.5" class="net_29 width_1" style="stroke-width: 1"/><line x1="253" x2="253" y1="260.5" y2="72.5" class="net_29 width_1" style="stroke-width: 1"/><circle cx="253" cy="260.5" r="2" style="fill:#000" class="net_29 width_1"/><line x1="253" x2="446" y1="72.5" y2="72.5" class="net_29 width_1" style="stroke-width: 1"/><line x1="42" x2="62" y1="1088.5" y2="1088.5" class="net_20 width_1" style="stroke-width: 1"/><line x1="62" x2="62" y1="1088.5" y2="418.5" class="net_20 width_1" style="stroke-width: 1"/><line x1="62" x2="293" y1="418.5" y2="418.5" class="net_20 width_1" style="stroke-width: 1"/><line x1="293" x2="293" y1="418.5" y2="280.5" class="net_20 width_1" style="stroke-width: 1"/><line x1="293" x2="446" y1="280.5" y2="280.5" class="net_20 width_1" style="stroke-width: 1"/><line x1="42" x2="62" y1="1088.5" y2="1088.5" class="net_20 width_1" style="stroke-width: 1"/><line x1="62" x2="62" y1="1088.5" y2="1033.5" class="net_20 width_1" style="stroke-width: 1"/><circle cx="62" cy="1033.5" r="2" style="fill:#000" class="net_20 width_1"/><line x1="62" x2="139" y1="1033.5" y2="1033.5" class="net_20 width_1" style="stroke-width: 1"/><line x1="211" x2="403" y1="981" y2="981" class="net_28 width_1" style="stroke-width: 1"/><line x1="403" x2="403" y1="981" y2="300.5" class="net_28 width_1" style="stroke-width: 1"/><circle cx="403" cy="981" r="2" style="fill:#000" class="net_28 width_1"/><circle cx="403" cy="300.5" r="2" style="fill:#000" class="net_28 width_1"/><line x1="403" x2="446" y1="300.5" y2="300.5" class="net_28 width_1" style="stroke-width: 1"/><line x1="211" x2="403" y1="981" y2="981" class="net_28 width_1" style="stroke-width: 1"/><line x1="403" x2="403" y1="981" y2="132.5" class="net_28 width_1" style="stroke-width: 1"/><line x1="403" x2="446" y1="132.5" y2="132.5" class="net_28 width_1" style="stroke-width: 1"/><line x1="211" x2="403" y1="981" y2="981" class="net_28 width_1" style="stroke-width: 1"/><line x1="403" x2="403" y1="981" y2="468.5" class="net_28 width_1" style="stroke-width: 1"/><circle cx="403" cy="468.5" r="2" style="fill:#000" class="net_28 width_1"/><line x1="403" x2="446" y1="468.5" y2="468.5" class="net_28 width_1" style="stroke-width: 1"/><line x1="211" x2="403" y1="981" y2="981" class="net_28 width_1" style="stroke-width: 1"/><line x1="403" x2="403" y1="981" y2="818" class="net_28 width_1" style="stroke-width: 1"/><circle cx="403" cy="818" r="2" style="fill:#000" class="net_28 width_1"/><line x1="403" x2="446" y1="818" y2="818" class="net_28 width_1" style="stroke-width: 1"/><line x1="211" x2="403" y1="981" y2="981" class="net_28 width_1" style="stroke-width: 1"/><line x1="403" x2="403" y1="981" y2="650" class="net_28 width_1" style="stroke-width: 1"/><circle cx="403" cy="650" r="2" style="fill:#000" class="net_28 width_1"/><line x1="403" x2="446" y1="650" y2="650" class="net_28 width_1" style="stroke-width: 1"/><line x1="211" x2="403" y1="981" y2="981" class="net_28 width_1" style="stroke-width: 1"/><line x1="403" x2="403" y1="981" y2="986" class="net_28 width_1" style="stroke-width: 1"/><circle cx="403" cy="986" r="2" style="fill:#000" class="net_28 width_1"/><line x1="403" x2="446" y1="986" y2="986" class="net_28 width_1" style="stroke-width: 1"/><line x1="211" x2="403" y1="981" y2="981" class="net_28 width_1" style="stroke-width: 1"/><line x1="403" x2="403" y1="981" y2="1154" class="net_28 width_1" style="stroke-width: 1"/><circle cx="403" cy="1154" r="2" style="fill:#000" class="net_28 width_1"/><line x1="403" x2="446" y1="1154" y2="1154" class="net_28 width_1" style="stroke-width: 1"/><line x1="211" x2="403" y1="981" y2="981" class="net_28 width_1" style="stroke-width: 1"/><line x1="403" x2="403" y1="981" y2="1322" class="net_28 width_1" style="stroke-width: 1"/><line x1="403" x2="446" y1="1322" y2="1322" class="net_28 width_1" style="stroke-width: 1"/><line x1="210.55555555555554" x2="233" y1="490" y2="490" class="net_3 width_1" style="stroke-width: 1"/><line x1="233" x2="233" y1="490" y2="32.5" class="net_3 width_1" style="stroke-width: 1"/><line x1="233" x2="447" y1="32.5" y2="32.5" class="net_3 width_1" style="stroke-width: 1"/><line x1="210.55555555555554" x2="243" y1="698" y2="698" class="net_11 width_1" style="stroke-width: 1"/><line x1="243" x2="243" y1="698" y2="52.5" class="net_11 width_1" style="stroke-width: 1"/><line x1="243" x2="446" y1="52.5" y2="52.5" class="net_11 width_1" style="stroke-width: 1"/><line x1="211" x2="263" y1="408.5" y2="408.5" class="net_30 width_1" style="stroke-width: 1"/><line x1="263" x2="263" y1="408.5" y2="92.5" class="net_30 width_1" style="stroke-width: 1"/><circle cx="263" cy="408.5" r="2" style="fill:#000" class="net_30 width_1"/><line x1="263" x2="446" y1="92.5" y2="92.5" class="net_30 width_1" style="stroke-width: 1"/><line x1="211" x2="446" y1="408.5" y2="408.5" class="net_30 width_1" style="stroke-width: 1"/><line x1="42" x2="52" y1="1053.5" y2="1053.5" class="net_21 width_1" style="stroke-width: 1"/><line x1="52" x2="52" y1="1053.5" y2="112.5" class="net_21 width_1" style="stroke-width: 1"/><circle cx="52" cy="1053.5" r="2" style="fill:#000" class="net_21 width_1"/><line x1="52" x2="446" y1="112.5" y2="112.5" class="net_21 width_1" style="stroke-width: 1"/><line x1="42" x2="139" y1="1053.5" y2="1053.5" class="net_21 width_1" style="stroke-width: 1"/><line x1="210.55555555555554" x2="313" y1="510" y2="510" class="net_4 width_1" style="stroke-width: 1"/><line x1="313" x2="313" y1="510" y2="368.5" class="net_4 width_1" style="stroke-width: 1"/><line x1="313" x2="447" y1="368.5" y2="368.5" class="net_4 width_1" style="stroke-width: 1"/><line x1="210.55555555555554" x2="323" y1="718" y2="718" class="net_12 width_1" style="stroke-width: 1"/><line x1="323" x2="323" y1="718" y2="388.5" class="net_12 width_1" style="stroke-width: 1"/><line x1="323" x2="446" y1="388.5" y2="388.5" class="net_12 width_1" style="stroke-width: 1"/><line x1="211" x2="363" y1="848.5" y2="848.5" class="net_31 width_1" style="stroke-width: 1"/><line x1="363" x2="363" y1="848.5" y2="428.5" class="net_31 width_1" style="stroke-width: 1"/><line x1="363" x2="446" y1="428.5" y2="428.5" class="net_31 width_1" style="stroke-width: 1"/><line x1="211" x2="363" y1="848.5" y2="848.5" class="net_31 width_1" style="stroke-width: 1"/><line x1="363" x2="363" y1="848.5" y2="758" class="net_31 width_1" style="stroke-width: 1"/><circle cx="363" cy="758" r="2" style="fill:#000" class="net_31 width_1"/><line x1="363" x2="446" y1="758" y2="758" class="net_31 width_1" style="stroke-width: 1"/><line x1="42" x2="72" y1="1123.5" y2="1123.5" class="net_22 width_1" style="stroke-width: 1"/><line x1="72" x2="72" y1="1123.5" y2="448.5" class="net_22 width_1" style="stroke-width: 1"/><line x1="72" x2="446" y1="448.5" y2="448.5" class="net_22 width_1" style="stroke-width: 1"/><line x1="42" x2="72" y1="1123.5" y2="1123.5" class="net_22 width_1" style="stroke-width: 1"/><line x1="72" x2="72" y1="1123.5" y2="1073.5" class="net_22 width_1" style="stroke-width: 1"/><circle cx="72" cy="1073.5" r="2" style="fill:#000" class="net_22 width_1"/><line x1="72" x2="139" y1="1073.5" y2="1073.5" class="net_22 width_1" style="stroke-width: 1"/><line x1="210.55555555555554" x2="393" y1="530" y2="530" class="net_5 width_1" style="stroke-width: 1"/><line x1="393" x2="393" y1="530" y2="718" class="net_5 width_1" style="stroke-width: 1"/><line x1="393" x2="447" y1="718" y2="718" class="net_5 width_1" style="stroke-width: 1"/><line x1="210.55555555555554" x2="446" y1="738" y2="738" class="net_13 width_1" style="stroke-width: 1"/><line x1="211" x2="373" y1="883.5" y2="883.5" class="net_32 width_1" style="stroke-width: 1"/><line x1="373" x2="373" y1="883.5" y2="778" class="net_32 width_1" style="stroke-width: 1"/><circle cx="373" cy="778" r="2" style="fill:#000" class="net_32 width_1"/><line x1="373" x2="446" y1="778" y2="778" class="net_32 width_1" style="stroke-width: 1"/><line x1="211" x2="373" y1="883.5" y2="883.5" class="net_32 width_1" style="stroke-width: 1"/><line x1="373" x2="373" y1="883.5" y2="590" class="net_32 width_1" style="stroke-width: 1"/><line x1="373" x2="446" y1="590" y2="590" class="net_32 width_1" style="stroke-width: 1"/><line x1="42" x2="102" y1="1193.5" y2="1193.5" class="net_23 width_1" style="stroke-width: 1"/><line x1="102" x2="102" y1="1193.5" y2="1012" class="net_23 width_1" style="stroke-width: 1"/><line x1="102" x2="393" y1="1012" y2="1012" class="net_23 width_1" style="stroke-width: 1"/><line x1="393" x2="393" y1="1012" y2="798" class="net_23 width_1" style="stroke-width: 1"/><line x1="393" x2="446" y1="798" y2="798" class="net_23 width_1" style="stroke-width: 1"/><line x1="42" x2="102" y1="1193.5" y2="1193.5" class="net_23 width_1" style="stroke-width: 1"/><line x1="102" x2="102" y1="1193.5" y2="1093.5" class="net_23 width_1" style="stroke-width: 1"/><circle cx="102" cy="1093.5" r="2" style="fill:#000" class="net_23 width_1"/><line x1="102" x2="139" y1="1093.5" y2="1093.5" class="net_23 width_1" style="stroke-width: 1"/><line x1="210.55555555555554" x2="447" y1="550" y2="550" class="net_6 width_1" style="stroke-width: 1"/><line x1="210.55555555555554" x2="343" y1="758" y2="758" class="net_14 width_1" style="stroke-width: 1"/><line x1="343" x2="343" y1="758" y2="570" class="net_14 width_1" style="stroke-width: 1"/><line x1="343" x2="446" y1="570" y2="570" class="net_14 width_1" style="stroke-width: 1"/><line x1="211" x2="383" y1="926" y2="926" class="net_33 width_1" style="stroke-width: 1"/><line x1="383" x2="383" y1="926" y2="610" class="net_33 width_1" style="stroke-width: 1"/><circle cx="383" cy="926" r="2" style="fill:#000" class="net_33 width_1"/><line x1="383" x2="446" y1="610" y2="610" class="net_33 width_1" style="stroke-width: 1"/><line x1="211" x2="446" y1="926" y2="926" class="net_33 width_1" style="stroke-width: 1"/><line x1="42" x2="82" y1="1158.5" y2="1158.5" class="net_24 width_1" style="stroke-width: 1"/><line x1="82" x2="82" y1="1158.5" y2="837.5" class="net_24 width_1" style="stroke-width: 1"/><line x1="82" x2="353" y1="837.5" y2="837.5" class="net_24 width_1" style="stroke-width: 1"/><line x1="353" x2="353" y1="837.5" y2="630" class="net_24 width_1" style="stroke-width: 1"/><line x1="353" x2="446" y1="630" y2="630" class="net_24 width_1" style="stroke-width: 1"/><line x1="42" x2="82" y1="1158.5" y2="1158.5" class="net_24 width_1" style="stroke-width: 1"/><line x1="82" x2="82" y1="1158.5" y2="1113.5" class="net_24 width_1" style="stroke-width: 1"/><circle cx="82" cy="1113.5" r="2" style="fill:#000" class="net_24 width_1"/><line x1="82" x2="139" y1="1113.5" y2="1113.5" class="net_24 width_1" style="stroke-width: 1"/><line x1="210.55555555555554" x2="333" y1="570" y2="570" class="net_7 width_1" style="stroke-width: 1"/><line x1="333" x2="333" y1="570" y2="886" class="net_7 width_1" style="stroke-width: 1"/><line x1="333" x2="447" y1="886" y2="886" class="net_7 width_1" style="stroke-width: 1"/><line x1="210.55555555555554" x2="263" y1="778" y2="778" class="net_15 width_1" style="stroke-width: 1"/><line x1="263" x2="263" y1="778" y2="906" class="net_15 width_1" style="stroke-width: 1"/><line x1="263" x2="446" y1="906" y2="906" class="net_15 width_1" style="stroke-width: 1"/><line x1="211" x2="413" y1="1094" y2="1094" class="net_34 width_1" style="stroke-width: 1"/><line x1="413" x2="413" y1="1094" y2="946" class="net_34 width_1" style="stroke-width: 1"/><circle cx="413" cy="1094" r="2" style="fill:#000" class="net_34 width_1"/><line x1="413" x2="446" y1="946" y2="946" class="net_34 width_1" style="stroke-width: 1"/><line x1="211" x2="446" y1="1094" y2="1094" class="net_34 width_1" style="stroke-width: 1"/><line x1="42" x2="92" y1="1228.5" y2="1228.5" class="net_25 width_1" style="stroke-width: 1"/><line x1="92" x2="92" y1="1228.5" y2="1001" class="net_25 width_1" style="stroke-width: 1"/><line x1="92" x2="423" y1="1001" y2="1001" class="net_25 width_1" style="stroke-width: 1"/><line x1="423" x2="423" y1="1001" y2="966" class="net_25 width_1" style="stroke-width: 1"/><line x1="423" x2="446" y1="966" y2="966" class="net_25 width_1" style="stroke-width: 1"/><line x1="42" x2="92" y1="1228.5" y2="1228.5" class="net_25 width_1" style="stroke-width: 1"/><line x1="92" x2="92" y1="1228.5" y2="1133.5" class="net_25 width_1" style="stroke-width: 1"/><circle cx="92" cy="1133.5" r="2" style="fill:#000" class="net_25 width_1"/><line x1="92" x2="139" y1="1133.5" y2="1133.5" class="net_25 width_1" style="stroke-width: 1"/><line x1="210.55555555555554" x2="313" y1="590" y2="590" class="net_8 width_1" style="stroke-width: 1"/><line x1="313" x2="313" y1="590" y2="1054" class="net_8 width_1" style="stroke-width: 1"/><line x1="313" x2="447" y1="1054" y2="1054" class="net_8 width_1" style="stroke-width: 1"/><line x1="210.55555555555554" x2="243" y1="798" y2="798" class="net_16 width_1" style="stroke-width: 1"/><line x1="243" x2="243" y1="798" y2="1074" class="net_16 width_1" style="stroke-width: 1"/><line x1="243" x2="446" y1="1074" y2="1074" class="net_16 width_1" style="stroke-width: 1"/><line x1="211" x2="243" y1="1262" y2="1262" class="net_35 width_1" style="stroke-width: 1"/><line x1="243" x2="243" y1="1262" y2="1114" class="net_35 width_1" style="stroke-width: 1"/><circle cx="243" cy="1262" r="2" style="fill:#000" class="net_35 width_1"/><line x1="243" x2="446" y1="1114" y2="1114" class="net_35 width_1" style="stroke-width: 1"/><line x1="211" x2="446" y1="1262" y2="1262" class="net_35 width_1" style="stroke-width: 1"/><line x1="42" x2="263" y1="1337" y2="1337" class="net_26 width_1" style="stroke-width: 1"/><line x1="263" x2="263" y1="1337" y2="1134" class="net_26 width_1" style="stroke-width: 1"/><line x1="263" x2="446" y1="1134" y2="1134" class="net_26 width_1" style="stroke-width: 1"/><line x1="42" x2="112" y1="1337" y2="1337" class="net_26 width_1" style="stroke-width: 1"/><line x1="112" x2="112" y1="1337" y2="1153.5" class="net_26 width_1" style="stroke-width: 1"/><circle cx="112" cy="1337" r="2" style="fill:#000" class="net_26 width_1"/><line x1="112" x2="139" y1="1153.5" y2="1153.5" class="net_26 width_1" style="stroke-width: 1"/><line x1="210.55555555555554" x2="253" y1="610" y2="610" class="net_9 width_1" style="stroke-width: 1"/><line x1="253" x2="253" y1="610" y2="1222" class="net_9 width_1" style="stroke-width: 1"/><line x1="253" x2="447" y1="1222" y2="1222" class="net_9 width_1" style="stroke-width: 1"/><line x1="210.55555555555554" x2="233" y1="818" y2="818" class="net_17 width_1" style="stroke-width: 1"/><line x1="233" x2="233" y1="818" y2="1242" class="net_17 width_1" style="stroke-width: 1"/><line x1="233" x2="446" y1="1242" y2="1242" class="net_17 width_1" style="stroke-width: 1"/><line x1="211" x2="413" y1="1389.5" y2="1389.5" class="net_19 width_1" style="stroke-width: 1"/><line x1="413" x2="413" y1="1389.5" y2="1282" class="net_19 width_1" style="stroke-width: 1"/><circle cx="413" cy="1389.5" r="2" style="fill:#000" class="net_19 width_1"/><line x1="413" x2="446" y1="1282" y2="1282" class="net_19 width_1" style="stroke-width: 1"/><line x1="211" x2="447" y1="1389.5" y2="1389.5" class="net_19 width_1" style="stroke-width: 1"/><line x1="42" x2="446" y1="1302" y2="1302" class="net_27 width_1" style="stroke-width: 1"/><line x1="42" x2="122" y1="1302" y2="1302" class="net_27 width_1" style="stroke-width: 1"/><line x1="122" x2="122" y1="1302" y2="1173.5" class="net_27 width_1" style="stroke-width: 1"/><circle cx="122" cy="1302" r="2" style="fill:#000" class="net_27 width_1"/><line x1="122" x2="139" y1="1173.5" y2="1173.5" class="net_27 width_1" style="stroke-width: 1"/><line x1="146" x2="156" y1="1103.5" y2="1103.5" class="net_20,21,22,23,24,25,26,27 width_8" style="stroke-width: 2"/><line x1="156" x2="156" y1="1103.5" y2="1454.5" class="net_20,21,22,23,24,25,26,27 width_8" style="stroke-width: 2"/><line x1="156" x2="447" y1="1454.5" y2="1454.5" class="net_20,21,22,23,24,25,26,27 width_8" style="stroke-width: 2"/><line x1="42" x2="203.55555555555554" y1="540" y2="540" class="net_2,3,4,5,6,7,8,9 width_8" style="stroke-width: 2"/><line x1="42" x2="203.55555555555554" y1="748" y2="748" class="net_10,11,12,13,14,15,16,17 width_8" style="stroke-width: 2"/><rect x="201" y="1449.5" width="16" height="9" class="net_20,21,22,23,24,25,26,27 width_8 busLabel_8" style="fill: white; stroke: none"/><text x="200" y="1457.5" class="net_20,21,22,23,24,25,26,27 width_8 busLabel_8">/8/</text><rect x="138" y="535" width="16" height="9" class="net_2,3,4,5,6,7,8,9 width_8 busLabel_8" style="fill: white; stroke: none"/><text x="137" y="543" class="net_2,3,4,5,6,7,8,9 width_8 busLabel_8">/8/</text><rect x="138" y="743" width="16" height="9" class="net_10,11,12,13,14,15,16,17 width_8 busLabel_8" style="fill: white; stroke: none"/><text x="137" y="751" class="net_10,11,12,13,14,15,16,17 width_8 busLabel_8">/8/</text></svg>